<svg width="596" height="73" viewBox="0 0 596 73" fill="none" xmlns="http://www.w3.org/2000/svg">
<path opacity="0.1" d="M11.056 61.264L11.7699 60.5637L11.056 61.264ZM11.056 11.536L11.7665 12.2397L11.7699 12.2363L11.056 11.536ZM52.912 5.776L52.4217 6.64757L52.4282 6.65119L52.4347 6.65472L52.912 5.776ZM65.008 17.296L65.5096 18.1611L66.3826 17.6549L65.8685 16.7865L65.008 17.296ZM53.584 23.92L52.709 24.4041L53.2029 25.2969L54.0856 24.7851L53.584 23.92ZM46.48 16.912L45.9897 17.7836L45.9967 17.7875L46.0037 17.7913L46.48 16.912ZM20.272 20.464L19.5593 19.7625L19.5538 19.7682L20.272 20.464ZM20.272 52.24L19.5537 52.9358L19.5593 52.9415L20.272 52.24ZM46.48 55.888L46.9563 56.7673L46.9626 56.7638L46.48 55.888ZM53.584 48.88L54.0856 48.0149L53.1963 47.4992L52.7054 48.4025L53.584 48.88ZM65.008 55.504L65.8685 56.0135L66.3826 55.1451L65.5096 54.6389L65.008 55.504ZM53.008 67.12L53.4899 67.9963L53.4983 67.9916L53.008 67.12ZM36.112 70.344C26.2464 70.344 18.1589 67.0768 11.7699 60.5637L10.3421 61.9643C17.1371 68.8912 25.7536 72.344 36.112 72.344V70.344ZM11.7699 60.5637C5.37062 54.0402 2.168 46.0078 2.168 36.4H0.168C0.168 46.5042 3.55738 55.0478 10.3421 61.9643L11.7699 60.5637ZM2.168 36.4C2.168 26.7263 5.37174 18.6965 11.7665 12.2397L10.3455 10.8323C3.55626 17.6875 0.168 26.2337 0.168 36.4H2.168ZM11.7699 12.2363C18.1589 5.72321 26.2464 2.456 36.112 2.456V0.455996C25.7536 0.455996 17.1371 3.90878 10.3421 10.8357L11.7699 12.2363ZM36.112 2.456C42.0265 2.456 47.4568 3.85479 52.4217 6.64757L53.4023 4.90442C48.1272 1.93721 42.3575 0.455996 36.112 0.455996V2.456ZM52.4347 6.65472C57.4672 9.38844 61.3637 13.1039 64.1475 17.8055L65.8685 16.7865C62.8923 11.7601 58.7248 7.79556 53.3893 4.89727L52.4347 6.65472ZM64.5064 16.4309L53.0824 23.0549L54.0856 24.7851L65.5096 18.1611L64.5064 16.4309ZM54.459 23.4359C52.701 20.2579 50.1933 17.7861 46.9563 16.0327L46.0037 17.7913C48.9107 19.3659 51.139 21.566 52.709 24.4041L54.459 23.4359ZM46.9703 16.0404C43.7354 14.2208 40.1079 13.32 36.112 13.32V15.32C39.7961 15.32 43.0806 16.1472 45.9897 17.7836L46.9703 16.0404ZM36.112 13.32C29.3558 13.32 23.8055 15.449 19.5593 19.7625L20.9847 21.1655C24.8025 17.287 29.8122 15.32 36.112 15.32V13.32ZM19.5538 19.7682C15.3786 24.078 13.32 29.6529 13.32 36.4H15.32C15.32 30.0911 17.2294 25.042 20.9902 21.1598L19.5538 19.7682ZM13.32 36.4C13.32 43.0862 15.3805 48.6279 19.5538 52.9358L20.9902 51.5442C17.2275 47.6601 15.32 42.6418 15.32 36.4H13.32ZM19.5593 52.9415C23.8055 57.255 29.3558 59.384 36.112 59.384V57.384C29.8122 57.384 24.8025 55.417 20.9847 51.5385L19.5593 52.9415ZM36.112 59.384C40.1015 59.384 43.7239 58.5182 46.9563 56.7673L46.0037 55.0087C43.0921 56.5858 39.8025 57.384 36.112 57.384V59.384ZM46.9626 56.7638C50.254 54.9502 52.7651 52.481 54.4626 49.3575L52.7054 48.4025C51.2029 51.167 48.9781 53.3698 45.9974 55.0122L46.9626 56.7638ZM53.0824 49.7451L64.5064 56.3691L65.5096 54.6389L54.0856 48.0149L53.0824 49.7451ZM64.1475 54.9945C61.3606 59.7013 57.4909 63.451 52.5177 66.2484L53.4983 67.9916C58.7651 65.029 62.8954 61.0347 65.8685 56.0135L64.1475 54.9945ZM52.5261 66.2438C47.5614 68.9744 42.0965 70.344 36.112 70.344V72.344C42.4155 72.344 48.2146 70.8976 53.4899 67.9962L52.5261 66.2438ZM116.065 70L115.116 70.3162L115.344 71H116.065V70ZM112.033 57.904L112.982 57.5878L112.754 56.904H112.033V57.904ZM85.249 57.904V56.904H84.5282L84.3003 57.5878L85.249 57.904ZM81.217 70V71H81.9378L82.1657 70.3162L81.217 70ZM66.913 70L65.9691 69.6696L65.5035 71H66.913V70ZM90.433 2.8V1.8H89.7235L89.4891 2.46964L90.433 2.8ZM106.849 2.8L107.792 2.46844L107.558 1.8H106.849V2.8ZM130.465 70V71H131.876L131.408 69.6684L130.465 70ZM89.473 45.52L88.525 45.2018L88.0825 46.52H89.473V45.52ZM107.905 45.52V46.52H109.295L108.853 45.2018L107.905 45.52ZM98.689 18.064L99.637 17.7458L98.689 14.9215L97.741 17.7458L98.689 18.064ZM117.014 69.6838L112.982 57.5878L111.084 58.2202L115.116 70.3162L117.014 69.6838ZM112.033 56.904H85.249V58.904H112.033V56.904ZM84.3003 57.5878L80.2683 69.6838L82.1657 70.3162L86.1977 58.2202L84.3003 57.5878ZM81.217 69H66.913V71H81.217V69ZM67.8569 70.3304L91.3769 3.13035L89.4891 2.46964L65.9691 69.6696L67.8569 70.3304ZM90.433 3.8H106.849V1.8H90.433V3.8ZM105.906 3.13155L129.522 70.3316L131.408 69.6684L107.792 2.46844L105.906 3.13155ZM130.465 69H116.065V71H130.465V69ZM89.473 46.52H107.905V44.52H89.473V46.52ZM108.853 45.2018L99.637 17.7458L97.741 18.3822L106.957 45.8382L108.853 45.2018ZM97.741 17.7458L88.525 45.2018L90.421 45.8382L99.637 18.3822L97.741 17.7458ZM150.238 57.328H149.238V58.328H150.238V57.328ZM175.87 57.328H176.87V56.328H175.87V57.328ZM175.87 70V71H176.87V70H175.87ZM136.99 70H135.99V71H136.99V70ZM136.99 2.8V1.8H135.99V2.8H136.99ZM150.238 2.8H151.238V1.8H150.238V2.8ZM150.238 58.328H175.87V56.328H150.238V58.328ZM174.87 57.328V70H176.87V57.328H174.87ZM175.87 69H136.99V71H175.87V69ZM137.99 70V2.8H135.99V70H137.99ZM136.99 3.8H150.238V1.8H136.99V3.8ZM149.238 2.8V57.328H151.238V2.8H149.238ZM186.087 61.264L186.801 60.5637L186.087 61.264ZM186.087 11.536L186.798 12.2397L186.801 12.2363L186.087 11.536ZM227.943 5.776L227.453 6.64757L227.459 6.65119L227.466 6.65472L227.943 5.776ZM240.039 17.296L240.541 18.1611L241.414 17.6549L240.9 16.7865L240.039 17.296ZM228.615 23.92L227.74 24.4041L228.234 25.2969L229.117 24.7851L228.615 23.92ZM221.511 16.912L221.021 17.7836L221.028 17.7875L221.035 17.7913L221.511 16.912ZM195.303 20.464L194.591 19.7625L194.585 19.7682L195.303 20.464ZM195.303 52.24L194.585 52.9358L194.591 52.9415L195.303 52.24ZM221.511 55.888L221.988 56.7673L221.994 56.7638L221.511 55.888ZM228.615 48.88L229.117 48.0149L228.228 47.4992L227.737 48.4025L228.615 48.88ZM240.039 55.504L240.9 56.0135L241.414 55.1451L240.541 54.6389L240.039 55.504ZM228.039 67.12L228.521 67.9963L228.53 67.9916L228.039 67.12ZM211.143 70.344C201.278 70.344 193.19 67.0768 186.801 60.5637L185.373 61.9643C192.168 68.8912 200.785 72.344 211.143 72.344V70.344ZM186.801 60.5637C180.402 54.0402 177.199 46.0078 177.199 36.4H175.199C175.199 46.5042 178.589 55.0478 185.373 61.9643L186.801 60.5637ZM177.199 36.4C177.199 26.7263 180.403 18.6965 186.798 12.2397L185.377 10.8323C178.588 17.6875 175.199 26.2337 175.199 36.4H177.199ZM186.801 12.2363C193.19 5.72321 201.278 2.456 211.143 2.456V0.455996C200.785 0.455996 192.168 3.90878 185.373 10.8357L186.801 12.2363ZM211.143 2.456C217.058 2.456 222.488 3.85479 227.453 6.64757L228.434 4.90442C223.158 1.93721 217.389 0.455996 211.143 0.455996V2.456ZM227.466 6.65472C232.498 9.38844 236.395 13.1039 239.179 17.8055L240.9 16.7865C237.924 11.7601 233.756 7.79556 228.421 4.89727L227.466 6.65472ZM239.538 16.4309L228.114 23.0549L229.117 24.7851L240.541 18.1611L239.538 16.4309ZM229.49 23.4359C227.732 20.2579 225.225 17.7861 221.988 16.0327L221.035 17.7913C223.942 19.3659 226.17 21.566 227.74 24.4041L229.49 23.4359ZM222.002 16.0404C218.767 14.2208 215.139 13.32 211.143 13.32V15.32C214.827 15.32 218.112 16.1472 221.021 17.7836L222.002 16.0404ZM211.143 13.32C204.387 13.32 198.837 15.449 194.591 19.7625L196.016 21.1655C199.834 17.287 204.843 15.32 211.143 15.32V13.32ZM194.585 19.7682C190.41 24.078 188.351 29.6529 188.351 36.4H190.351C190.351 30.0911 192.261 25.042 196.021 21.1598L194.585 19.7682ZM188.351 36.4C188.351 43.0862 190.412 48.6279 194.585 52.9358L196.021 51.5442C192.259 47.6601 190.351 42.6418 190.351 36.4H188.351ZM194.591 52.9415C198.837 57.255 204.387 59.384 211.143 59.384V57.384C204.843 57.384 199.834 55.417 196.016 51.5385L194.591 52.9415ZM211.143 59.384C215.133 59.384 218.755 58.5182 221.988 56.7673L221.035 55.0087C218.123 56.5858 214.834 57.384 211.143 57.384V59.384ZM221.994 56.7638C225.285 54.9502 227.796 52.481 229.494 49.3575L227.737 48.4025C226.234 51.167 224.009 53.3698 221.029 55.0122L221.994 56.7638ZM228.114 49.7451L239.538 56.3691L240.541 54.6389L229.117 48.0149L228.114 49.7451ZM239.179 54.9945C236.392 59.7013 232.522 63.451 227.549 66.2484L228.53 67.9916C233.796 65.029 237.927 61.0347 240.9 56.0135L239.179 54.9945ZM227.557 66.2438C222.593 68.9744 217.128 70.344 211.143 70.344V72.344C217.447 72.344 223.246 70.8976 228.521 67.9962L227.557 66.2438ZM254.802 65.008L254.141 65.7587L254.802 65.008ZM247.602 2.8V1.8H246.602V2.8H247.602ZM260.754 2.8H261.754V1.8H260.754V2.8ZM263.729 55.312L263.011 56.0078L263.017 56.0135L263.022 56.0191L263.729 55.312ZM282.642 55.312L281.934 54.6049L281.929 54.6105L281.923 54.6162L282.642 55.312ZM285.714 2.8V1.8H284.714V2.8H285.714ZM298.962 2.8H299.962V1.8H298.962V2.8ZM291.762 65.008L292.422 65.7587L291.762 65.008ZM273.233 70.344C265.945 70.344 260.049 68.2937 255.462 64.2573L254.141 65.7587C259.154 70.1703 265.546 72.344 273.233 72.344V70.344ZM255.462 64.2573C250.903 60.2455 248.602 54.8683 248.602 48.016H246.602C246.602 55.3717 249.1 61.3225 254.141 65.7587L255.462 64.2573ZM248.602 48.016V2.8H246.602V48.016H248.602ZM247.602 3.8H260.754V1.8H247.602V3.8ZM259.754 2.8V46.96H261.754V2.8H259.754ZM259.754 46.96C259.754 50.6754 260.806 53.7317 263.011 56.0078L264.448 54.6162C262.685 52.7963 261.754 50.2846 261.754 46.96H259.754ZM263.022 56.0191C265.332 58.3284 268.807 59.384 273.233 59.384V57.384C269.084 57.384 266.223 56.3916 264.437 54.6049L263.022 56.0191ZM273.233 59.384C277.657 59.384 281.11 58.3297 283.36 56.0078L281.923 54.6162C280.205 56.3903 277.386 57.384 273.233 57.384V59.384ZM283.349 56.0191C285.623 53.7445 286.714 50.6843 286.714 46.96H284.714C284.714 50.2757 283.756 52.7835 281.934 54.6049L283.349 56.0191ZM286.714 46.96V2.8H284.714V46.96H286.714ZM285.714 3.8H298.962V1.8H285.714V3.8ZM297.962 2.8V48.016H299.962V2.8H297.962ZM297.962 48.016C297.962 54.8683 295.66 60.2455 291.101 64.2573L292.422 65.7587C297.463 61.3225 299.962 55.3717 299.962 48.016H297.962ZM291.101 64.2573C286.516 68.2924 280.589 70.344 273.233 70.344V72.344C280.982 72.344 287.407 70.1716 292.422 65.7587L291.101 64.2573ZM324.144 57.328H323.144V58.328H324.144V57.328ZM349.776 57.328H350.776V56.328H349.776V57.328ZM349.776 70V71H350.776V70H349.776ZM310.896 70H309.896V71H310.896V70ZM310.896 2.8V1.8H309.896V2.8H310.896ZM324.144 2.8H325.144V1.8H324.144V2.8ZM324.144 58.328H349.776V56.328H324.144V58.328ZM348.776 57.328V70H350.776V57.328H348.776ZM349.776 69H310.896V71H349.776V69ZM311.896 70V2.8H309.896V70H311.896ZM310.896 3.8H324.144V1.8H310.896V3.8ZM323.144 2.8V57.328H325.144V2.8H323.144ZM402.378 70L401.429 70.3162L401.657 71H402.378V70ZM398.345 57.904L399.294 57.5878L399.066 56.904H398.345V57.904ZM371.561 57.904V56.904H370.841L370.613 57.5878L371.561 57.904ZM367.53 70V71H368.25L368.478 70.3162L367.53 70ZM353.225 70L352.282 69.6696L351.816 71H353.225V70ZM376.746 2.8V1.8H376.036L375.802 2.46964L376.746 2.8ZM393.161 2.8L394.105 2.46844L393.87 1.8H393.161V2.8ZM416.777 70V71H418.189L417.721 69.6684L416.777 70ZM375.785 45.52L374.837 45.2018L374.395 46.52H375.785V45.52ZM394.217 45.52V46.52H395.608L395.166 45.2018L394.217 45.52ZM385.001 18.064L385.95 17.7458L385.001 14.9215L384.053 17.7458L385.001 18.064ZM403.326 69.6838L399.294 57.5878L397.397 58.2202L401.429 70.3162L403.326 69.6838ZM398.345 56.904H371.561V58.904H398.345V56.904ZM370.613 57.5878L366.581 69.6838L368.478 70.3162L372.51 58.2202L370.613 57.5878ZM367.53 69H353.225V71H367.53V69ZM354.169 70.3304L377.689 3.13035L375.802 2.46964L352.282 69.6696L354.169 70.3304ZM376.746 3.8H393.161V1.8H376.746V3.8ZM392.218 3.13155L415.834 70.3316L417.721 69.6684L394.105 2.46844L392.218 3.13155ZM416.777 69H402.378V71H416.777V69ZM375.785 46.52H394.217V44.52H375.785V46.52ZM395.166 45.2018L385.95 17.7458L384.053 18.3822L393.269 45.8382L395.166 45.2018ZM384.053 17.7458L374.837 45.2018L376.734 45.8382L385.95 18.3822L384.053 17.7458ZM462.875 2.8H463.875V1.8H462.875V2.8ZM462.875 15.472V16.472H463.875V15.472H462.875ZM444.732 15.472V14.472H443.732V15.472H444.732ZM444.732 70V71H445.732V70H444.732ZM431.483 70H430.483V71H431.483V70ZM431.483 15.472H432.483V14.472H431.483V15.472ZM413.435 15.472H412.435V16.472H413.435V15.472ZM413.435 2.8V1.8H412.435V2.8H413.435ZM461.875 2.8V15.472H463.875V2.8H461.875ZM462.875 14.472H444.732V16.472H462.875V14.472ZM443.732 15.472V70H445.732V15.472H443.732ZM444.732 69H431.483V71H444.732V69ZM432.483 70V15.472H430.483V70H432.483ZM431.483 14.472H413.435V16.472H431.483V14.472ZM414.435 15.472V2.8H412.435V15.472H414.435ZM413.435 3.8H462.875V1.8H413.435V3.8ZM522.971 61.264L523.675 61.9745L523.679 61.9711L522.971 61.264ZM473.435 61.264L472.725 61.9678L472.732 61.9744L473.435 61.264ZM473.435 11.632L472.728 10.9249L473.435 11.632ZM522.971 11.632L522.264 12.3391L522.268 12.3424L522.971 11.632ZM482.747 52.24L482.04 52.9471L482.046 52.9526L482.747 52.24ZM513.659 52.24L514.361 52.9526L514.367 52.9471L513.659 52.24ZM513.659 20.56L514.367 19.8529L513.659 20.56ZM482.747 20.56L482.04 19.8529L482.747 20.56ZM522.268 60.5536C515.675 67.0842 507.673 70.344 498.203 70.344V72.344C508.19 72.344 516.7 68.8838 523.675 61.9744L522.268 60.5536ZM498.203 70.344C488.734 70.344 480.732 67.0842 474.139 60.5536L472.732 61.9744C479.707 68.8838 488.217 72.344 498.203 72.344V70.344ZM474.146 60.5602C467.617 53.9688 464.355 45.9359 464.355 36.4H462.355C462.355 46.4481 465.814 54.9912 472.725 61.9678L474.146 60.5602ZM464.355 36.4C464.355 26.8642 467.616 18.8653 474.143 12.3391L472.728 10.9249C465.815 17.8387 462.355 26.3518 462.355 36.4H464.355ZM474.143 12.3391C480.736 5.74556 488.737 2.456 498.203 2.456V0.455996C488.214 0.455996 479.703 3.95043 472.728 10.9249L474.143 12.3391ZM498.203 2.456C507.67 2.456 515.671 5.74556 522.264 12.3391L523.679 10.9249C516.704 3.95043 508.193 0.455996 498.203 0.455996V2.456ZM522.268 12.3424C528.857 18.8694 532.148 26.8672 532.148 36.4H534.148C534.148 26.3488 530.654 17.8346 523.675 10.9215L522.268 12.3424ZM532.148 36.4C532.148 45.9329 528.857 53.9647 522.264 60.5569L523.679 61.9711C530.654 54.9953 534.148 46.4511 534.148 36.4H532.148ZM482.046 52.9526C486.404 57.2432 491.812 59.384 498.203 59.384V57.384C492.307 57.384 487.411 55.4288 483.449 51.5274L482.046 52.9526ZM498.203 59.384C504.595 59.384 510.003 57.2432 514.361 52.9526L512.958 51.5274C508.996 55.4288 504.1 57.384 498.203 57.384V59.384ZM514.367 52.9471C518.732 48.5822 520.899 43.0395 520.899 36.4H518.899C518.899 42.5605 516.907 47.5778 512.952 51.5329L514.367 52.9471ZM520.899 36.4C520.899 29.7605 518.732 24.2178 514.367 19.8529L512.952 21.2671C516.907 25.2222 518.899 30.2395 518.899 36.4H520.899ZM514.367 19.8529C510.01 15.4963 504.6 13.32 498.203 13.32V15.32C504.095 15.32 508.989 17.3037 512.952 21.2671L514.367 19.8529ZM498.203 13.32C491.807 13.32 486.397 15.4963 482.04 19.8529L483.455 21.2671C487.418 17.3037 492.312 15.32 498.203 15.32V13.32ZM482.04 19.8529C477.675 24.2178 475.508 29.7605 475.508 36.4H477.508C477.508 30.2395 479.5 25.2222 483.455 21.2671L482.04 19.8529ZM475.508 36.4C475.508 43.0395 477.675 48.5822 482.04 52.9471L483.455 51.5329C479.5 47.5778 477.508 42.5605 477.508 36.4H475.508ZM579.323 70L578.458 70.5019L578.747 71H579.323V70ZM565.787 46.672L566.652 46.1701L566.363 45.672H565.787V46.672ZM555.707 46.672V45.672H554.707V46.672H555.707ZM555.707 70V71H556.707V70H555.707ZM542.459 70H541.459V71H542.459V70ZM542.459 2.8V1.8H541.459V2.8H542.459ZM585.179 9.328L585.886 8.62089V8.62089L585.179 9.328ZM588.155 36.688L588.984 37.2462L588.989 37.2393L588.155 36.688ZM578.747 44.656L578.33 43.7472L577.324 44.2086L577.884 45.1623L578.747 44.656ZM593.627 70V71H595.373L594.489 69.4937L593.627 70ZM555.707 15.184V14.184H554.707V15.184H555.707ZM555.707 35.056H554.707V36.056H555.707V35.056ZM575.771 32.176L576.502 32.8583L576.507 32.8523L576.513 32.8463L575.771 32.176ZM575.771 18.064L575.04 18.7463L575.771 18.064ZM580.188 69.4981L566.652 46.1701L564.922 47.1739L578.458 70.5019L580.188 69.4981ZM565.787 45.672H555.707V47.672H565.787V45.672ZM554.707 46.672V70H556.707V46.672H554.707ZM555.707 69H542.459V71H555.707V69ZM543.459 70V2.8H541.459V70H543.459ZM542.459 3.8H569.339V1.8H542.459V3.8ZM569.339 3.8C575.284 3.8 580.309 5.87246 584.472 10.0351L585.886 8.62089C581.344 4.07953 575.809 1.8 569.339 1.8V3.8ZM584.472 10.0351C588.636 14.1999 590.707 19.1937 590.707 25.072H592.707C592.707 18.6623 590.425 13.1601 585.886 8.62089L584.472 10.0351ZM590.707 25.072C590.707 29.0293 589.584 32.7106 587.32 36.1367L588.989 37.2393C591.461 33.4974 592.707 29.4347 592.707 25.072H590.707ZM587.325 36.1298C585.061 39.4952 582.069 42.0309 578.33 43.7472L579.164 45.5648C583.233 43.6971 586.512 40.9208 588.984 37.2462L587.325 36.1298ZM577.884 45.1623L592.764 70.5063L594.489 69.4937L579.609 44.1497L577.884 45.1623ZM593.627 69H579.323V71H593.627V69ZM554.707 15.184V35.056H556.707V15.184H554.707ZM555.707 36.056H569.339V34.056H555.707V36.056ZM569.339 36.056C572.128 36.056 574.532 34.9691 576.502 32.8583L575.04 31.4937C573.426 33.2229 571.542 34.056 569.339 34.056V36.056ZM576.513 32.8463C578.476 30.6726 579.459 28.0636 579.459 25.072H577.459C577.459 27.5844 576.649 29.7114 575.029 31.5057L576.513 32.8463ZM579.459 25.072C579.459 22.0801 578.476 19.4964 576.502 17.3817L575.04 18.7463C576.65 20.4716 577.459 22.5599 577.459 25.072H579.459ZM576.502 17.3817C574.532 15.2709 572.128 14.184 569.339 14.184V16.184C571.542 16.184 573.426 17.017 575.04 18.7463L576.502 17.3817ZM569.339 14.184H555.707V16.184H569.339V14.184Z" fill="#20242D"/>
</svg>
