<svg width="489" height="73" viewBox="0 0 489 73" fill="none" xmlns="http://www.w3.org/2000/svg">
<path opacity="0.1" d="M11.056 61.264L11.7699 60.5637L11.056 61.264ZM11.056 11.536L11.7665 12.2397L11.7699 12.2363L11.056 11.536ZM52.912 5.776L52.4217 6.64757L52.4282 6.65119L52.4347 6.65472L52.912 5.776ZM65.008 17.296L65.5096 18.1611L66.3826 17.6549L65.8685 16.7865L65.008 17.296ZM53.584 23.92L52.709 24.4041L53.2029 25.2969L54.0856 24.7851L53.584 23.92ZM46.48 16.912L45.9897 17.7836L45.9967 17.7875L46.0037 17.7913L46.48 16.912ZM20.272 20.464L19.5593 19.7625L19.5538 19.7682L20.272 20.464ZM20.272 52.24L19.5537 52.9358L19.5593 52.9415L20.272 52.24ZM46.48 55.888L46.9563 56.7673L46.9626 56.7638L46.48 55.888ZM53.584 48.88L54.0856 48.0149L53.1963 47.4992L52.7054 48.4025L53.584 48.88ZM65.008 55.504L65.8685 56.0135L66.3826 55.1451L65.5096 54.6389L65.008 55.504ZM53.008 67.12L53.4899 67.9963L53.4983 67.9916L53.008 67.12ZM36.112 70.344C26.2464 70.344 18.1589 67.0768 11.7699 60.5637L10.3421 61.9643C17.1371 68.8912 25.7536 72.344 36.112 72.344V70.344ZM11.7699 60.5637C5.37062 54.0402 2.168 46.0078 2.168 36.4H0.168C0.168 46.5042 3.55738 55.0478 10.3421 61.9643L11.7699 60.5637ZM2.168 36.4C2.168 26.7263 5.37174 18.6965 11.7665 12.2397L10.3455 10.8323C3.55626 17.6875 0.168 26.2337 0.168 36.4H2.168ZM11.7699 12.2363C18.1589 5.72321 26.2464 2.456 36.112 2.456V0.455996C25.7536 0.455996 17.1371 3.90878 10.3421 10.8357L11.7699 12.2363ZM36.112 2.456C42.0265 2.456 47.4568 3.85479 52.4217 6.64757L53.4023 4.90442C48.1272 1.93721 42.3575 0.455996 36.112 0.455996V2.456ZM52.4347 6.65472C57.4672 9.38844 61.3637 13.1039 64.1475 17.8055L65.8685 16.7865C62.8923 11.7601 58.7248 7.79556 53.3893 4.89727L52.4347 6.65472ZM64.5064 16.4309L53.0824 23.0549L54.0856 24.7851L65.5096 18.1611L64.5064 16.4309ZM54.459 23.4359C52.701 20.2579 50.1933 17.7861 46.9563 16.0327L46.0037 17.7913C48.9107 19.3659 51.139 21.566 52.709 24.4041L54.459 23.4359ZM46.9703 16.0404C43.7354 14.2208 40.1079 13.32 36.112 13.32V15.32C39.7961 15.32 43.0806 16.1472 45.9897 17.7836L46.9703 16.0404ZM36.112 13.32C29.3558 13.32 23.8055 15.449 19.5593 19.7625L20.9847 21.1655C24.8025 17.287 29.8122 15.32 36.112 15.32V13.32ZM19.5538 19.7682C15.3786 24.078 13.32 29.6529 13.32 36.4H15.32C15.32 30.0911 17.2294 25.042 20.9902 21.1598L19.5538 19.7682ZM13.32 36.4C13.32 43.0862 15.3805 48.6279 19.5538 52.9358L20.9902 51.5442C17.2275 47.6601 15.32 42.6418 15.32 36.4H13.32ZM19.5593 52.9415C23.8055 57.255 29.3558 59.384 36.112 59.384V57.384C29.8122 57.384 24.8025 55.417 20.9847 51.5385L19.5593 52.9415ZM36.112 59.384C40.1015 59.384 43.7239 58.5182 46.9563 56.7673L46.0037 55.0087C43.0921 56.5858 39.8025 57.384 36.112 57.384V59.384ZM46.9626 56.7638C50.254 54.9502 52.7651 52.481 54.4626 49.3575L52.7054 48.4025C51.2029 51.167 48.9781 53.3698 45.9974 55.0122L46.9626 56.7638ZM53.0824 49.7451L64.5064 56.3691L65.5096 54.6389L54.0856 48.0149L53.0824 49.7451ZM64.1475 54.9945C61.3606 59.7013 57.4909 63.451 52.5177 66.2484L53.4983 67.9916C58.7651 65.029 62.8954 61.0347 65.8685 56.0135L64.1475 54.9945ZM52.5261 66.2438C47.5614 68.9744 42.0965 70.344 36.112 70.344V72.344C42.4155 72.344 48.2146 70.8976 53.4899 67.9962L52.5261 66.2438ZM129.034 61.264L129.738 61.9745L129.741 61.9711L129.034 61.264ZM79.498 61.264L78.7875 61.9678L78.7943 61.9744L79.498 61.264ZM79.498 11.632L78.7909 10.9249L79.498 11.632ZM129.034 11.632L128.327 12.3391L128.33 12.3424L129.034 11.632ZM88.81 52.24L88.1029 52.9471L88.1084 52.9526L88.81 52.24ZM119.722 52.24L120.424 52.9526L120.429 52.9471L119.722 52.24ZM119.722 20.56L120.429 19.8529L119.722 20.56ZM88.81 20.56L88.1029 19.8529L88.81 20.56ZM128.33 60.5536C121.737 67.0842 113.736 70.344 104.266 70.344V72.344C114.252 72.344 122.763 68.8838 129.738 61.9744L128.33 60.5536ZM104.266 70.344C94.796 70.344 86.7946 67.0842 80.2018 60.5536L78.7943 61.9744C85.7694 68.8838 94.28 72.344 104.266 72.344V70.344ZM80.2085 60.5602C73.6792 53.9688 70.418 45.9359 70.418 36.4H68.418C68.418 46.4481 71.8768 54.9912 78.7876 61.9678L80.2085 60.5602ZM70.418 36.4C70.418 26.8642 73.6789 18.8653 80.2051 12.3391L78.7909 10.9249C71.8771 17.8387 68.418 26.3518 68.418 36.4H70.418ZM80.2051 12.3391C86.7987 5.74556 94.7991 2.456 104.266 2.456V0.455996C94.2769 0.455996 85.7654 3.95043 78.7909 10.9249L80.2051 12.3391ZM104.266 2.456C113.733 2.456 121.733 5.74556 128.327 12.3391L129.741 10.9249C122.767 3.95043 114.255 0.455996 104.266 0.455996V2.456ZM128.33 12.3424C134.919 18.8694 138.21 26.8672 138.21 36.4H140.21C140.21 26.3488 136.717 17.8346 129.738 10.9215L128.33 12.3424ZM138.21 36.4C138.21 45.9329 134.919 53.9647 128.327 60.5569L129.741 61.9711C136.717 54.9953 140.21 46.4511 140.21 36.4H138.21ZM88.1084 52.9526C92.4661 57.2432 97.8747 59.384 104.266 59.384V57.384C98.3693 57.384 93.4739 55.4288 89.5116 51.5274L88.1084 52.9526ZM104.266 59.384C110.657 59.384 116.066 57.2432 120.424 52.9526L119.02 51.5274C115.058 55.4288 110.163 57.384 104.266 57.384V59.384ZM120.429 52.9471C124.794 48.5822 126.962 43.0395 126.962 36.4H124.962C124.962 42.5605 122.97 47.5778 119.015 51.5329L120.429 52.9471ZM126.962 36.4C126.962 29.7605 124.794 24.2178 120.429 19.8529L119.015 21.2671C122.97 25.2222 124.962 30.2395 124.962 36.4H126.962ZM120.429 19.8529C116.073 15.4963 110.662 13.32 104.266 13.32V15.32C110.158 15.32 115.051 17.3037 119.015 21.2671L120.429 19.8529ZM104.266 13.32C97.8699 13.32 92.4595 15.4963 88.1029 19.8529L89.5171 21.2671C93.4805 17.3037 98.3741 15.32 104.266 15.32V13.32ZM88.1029 19.8529C83.7379 24.2178 81.57 29.7605 81.57 36.4H83.57C83.57 30.2395 85.5621 25.2222 89.5171 21.2671L88.1029 19.8529ZM81.57 36.4C81.57 43.0395 83.7379 48.5822 88.1029 52.9471L89.5171 51.5329C85.5621 47.5778 83.57 42.5605 83.57 36.4H81.57ZM187.401 2.8V1.8H186.401V2.8H187.401ZM200.649 2.8H201.649V1.8H200.649V2.8ZM200.649 70V71H201.649V70H200.649ZM190.569 70L189.75 70.574L190.049 71H190.569V70ZM161.769 28.912L162.588 28.338L160.769 25.7431V28.912H161.769ZM161.769 70V71H162.769V70H161.769ZM148.521 70H147.521V71H148.521V70ZM148.521 2.8V1.8H147.521V2.8H148.521ZM158.601 2.8L159.419 2.22512L159.121 1.8H158.601V2.8ZM187.401 43.792L186.583 44.3669L188.401 46.9548V43.792H187.401ZM187.401 3.8H200.649V1.8H187.401V3.8ZM199.649 2.8V70H201.649V2.8H199.649ZM200.649 69H190.569V71H200.649V69ZM191.388 69.426L162.588 28.338L160.95 29.486L189.75 70.574L191.388 69.426ZM160.769 28.912V70H162.769V28.912H160.769ZM161.769 69H148.521V71H161.769V69ZM149.521 70V2.8H147.521V70H149.521ZM148.521 3.8H158.601V1.8H148.521V3.8ZM157.783 3.37487L186.583 44.3669L188.219 43.2171L159.419 2.22512L157.783 3.37487ZM188.401 43.792V2.8H186.401V43.792H188.401ZM257.563 2.8H258.563V1.8H257.563V2.8ZM257.563 15.472V16.472H258.563V15.472H257.563ZM239.419 15.472V14.472H238.419V15.472H239.419ZM239.419 70V71H240.419V70H239.419ZM226.171 70H225.171V71H226.171V70ZM226.171 15.472H227.171V14.472H226.171V15.472ZM208.123 15.472H207.123V16.472H208.123V15.472ZM208.123 2.8V1.8H207.123V2.8H208.123ZM256.563 2.8V15.472H258.563V2.8H256.563ZM257.563 14.472H239.419V16.472H257.563V14.472ZM238.419 15.472V70H240.419V15.472H238.419ZM239.419 69H226.171V71H239.419V69ZM227.171 70V15.472H225.171V70H227.171ZM226.171 14.472H208.123V16.472H226.171V14.472ZM209.123 15.472V2.8H207.123V15.472H209.123ZM208.123 3.8H257.563V1.8H208.123V3.8ZM303.284 70L302.335 70.3162L302.563 71H303.284V70ZM299.252 57.904L300.2 57.5878L299.973 56.904H299.252V57.904ZM272.468 57.904V56.904H271.747L271.519 57.5878L272.468 57.904ZM268.436 70V71H269.157L269.384 70.3162L268.436 70ZM254.132 70L253.188 69.6696L252.722 71H254.132V70ZM277.652 2.8V1.8H276.942L276.708 2.46964L277.652 2.8ZM294.068 2.8L295.011 2.46844L294.776 1.8H294.068V2.8ZM317.684 70V71H319.095L318.627 69.6684L317.684 70ZM276.692 45.52L275.744 45.2018L275.301 46.52H276.692V45.52ZM295.124 45.52V46.52H296.514L296.072 45.2018L295.124 45.52ZM285.908 18.064L286.856 17.7458L285.908 14.9215L284.96 17.7458L285.908 18.064ZM304.232 69.6838L300.2 57.5878L298.303 58.2202L302.335 70.3162L304.232 69.6838ZM299.252 56.904H272.468V58.904H299.252V56.904ZM271.519 57.5878L267.487 69.6838L269.384 70.3162L273.416 58.2202L271.519 57.5878ZM268.436 69H254.132V71H268.436V69ZM255.076 70.3304L278.596 3.13035L276.708 2.46964L253.188 69.6696L255.076 70.3304ZM277.652 3.8H294.068V1.8H277.652V3.8ZM293.124 3.13155L316.74 70.3316L318.627 69.6684L295.011 2.46844L293.124 3.13155ZM317.684 69H303.284V71H317.684V69ZM276.692 46.52H295.124V44.52H276.692V46.52ZM296.072 45.2018L286.856 17.7458L284.96 18.3822L294.176 45.8382L296.072 45.2018ZM284.96 17.7458L275.744 45.2018L277.64 45.8382L286.856 18.3822L284.96 17.7458ZM328.587 61.264L329.301 60.5637L328.587 61.264ZM328.587 11.536L329.298 12.2397L329.301 12.2363L328.587 11.536ZM370.443 5.776L369.953 6.64757L369.959 6.65119L369.966 6.65472L370.443 5.776ZM382.539 17.296L383.041 18.1611L383.914 17.6549L383.4 16.7865L382.539 17.296ZM371.115 23.92L370.24 24.4041L370.734 25.2969L371.617 24.7851L371.115 23.92ZM364.011 16.912L363.521 17.7836L363.528 17.7875L363.535 17.7913L364.011 16.912ZM337.803 20.464L337.091 19.7625L337.085 19.7682L337.803 20.464ZM337.803 52.24L337.085 52.9358L337.091 52.9415L337.803 52.24ZM364.011 55.888L364.488 56.7673L364.494 56.7638L364.011 55.888ZM371.115 48.88L371.617 48.0149L370.728 47.4992L370.237 48.4025L371.115 48.88ZM382.539 55.504L383.4 56.0135L383.914 55.1451L383.041 54.6389L382.539 55.504ZM370.539 67.12L371.021 67.9963L371.03 67.9916L370.539 67.12ZM353.643 70.344C343.778 70.344 335.69 67.0768 329.301 60.5637L327.873 61.9643C334.668 68.8912 343.285 72.344 353.643 72.344V70.344ZM329.301 60.5637C322.902 54.0402 319.699 46.0078 319.699 36.4H317.699C317.699 46.5042 321.089 55.0478 327.873 61.9643L329.301 60.5637ZM319.699 36.4C319.699 26.7263 322.903 18.6965 329.298 12.2397L327.877 10.8323C321.088 17.6875 317.699 26.2337 317.699 36.4H319.699ZM329.301 12.2363C335.69 5.72321 343.778 2.456 353.643 2.456V0.455996C343.285 0.455996 334.668 3.90878 327.873 10.8357L329.301 12.2363ZM353.643 2.456C359.558 2.456 364.988 3.85479 369.953 6.64757L370.934 4.90442C365.658 1.93721 359.889 0.455996 353.643 0.455996V2.456ZM369.966 6.65472C374.998 9.38844 378.895 13.1039 381.679 17.8055L383.4 16.7865C380.424 11.7601 376.256 7.79556 370.921 4.89727L369.966 6.65472ZM382.038 16.4309L370.614 23.0549L371.617 24.7851L383.041 18.1611L382.038 16.4309ZM371.99 23.4359C370.232 20.2579 367.725 17.7861 364.488 16.0327L363.535 17.7913C366.442 19.3659 368.67 21.566 370.24 24.4041L371.99 23.4359ZM364.502 16.0404C361.267 14.2208 357.639 13.32 353.643 13.32V15.32C357.327 15.32 360.612 16.1472 363.521 17.7836L364.502 16.0404ZM353.643 13.32C346.887 13.32 341.337 15.449 337.091 19.7625L338.516 21.1655C342.334 17.287 347.344 15.32 353.643 15.32V13.32ZM337.085 19.7682C332.91 24.078 330.851 29.6529 330.851 36.4H332.851C332.851 30.0911 334.761 25.042 338.521 21.1598L337.085 19.7682ZM330.851 36.4C330.851 43.0862 332.912 48.6279 337.085 52.9358L338.521 51.5442C334.759 47.6601 332.851 42.6418 332.851 36.4H330.851ZM337.091 52.9415C341.337 57.255 346.887 59.384 353.643 59.384V57.384C347.344 57.384 342.334 55.417 338.516 51.5385L337.091 52.9415ZM353.643 59.384C357.633 59.384 361.255 58.5182 364.488 56.7673L363.535 55.0087C360.623 56.5858 357.334 57.384 353.643 57.384V59.384ZM364.494 56.7638C367.785 54.9502 370.296 52.481 371.994 49.3575L370.237 48.4025C368.734 51.167 366.509 53.3698 363.529 55.0122L364.494 56.7638ZM370.614 49.7451L382.038 56.3691L383.041 54.6389L371.617 48.0149L370.614 49.7451ZM381.679 54.9945C378.892 59.7013 375.022 63.451 370.049 66.2484L371.03 67.9916C376.296 65.029 380.427 61.0347 383.4 56.0135L381.679 54.9945ZM370.057 66.2438C365.093 68.9744 359.628 70.344 353.643 70.344V72.344C359.947 72.344 365.746 70.8976 371.021 67.9962L370.057 66.2438ZM434.844 2.8H435.844V1.8H434.844V2.8ZM434.844 15.472V16.472H435.844V15.472H434.844ZM416.7 15.472V14.472H415.7V15.472H416.7ZM416.7 70V71H417.7V70H416.7ZM403.452 70H402.452V71H403.452V70ZM403.452 15.472H404.452V14.472H403.452V15.472ZM385.404 15.472H384.404V16.472H385.404V15.472ZM385.404 2.8V1.8H384.404V2.8H385.404ZM433.844 2.8V15.472H435.844V2.8H433.844ZM434.844 14.472H416.7V16.472H434.844V14.472ZM415.7 15.472V70H417.7V15.472H415.7ZM416.7 69H403.452V71H416.7V69ZM404.452 70V15.472H402.452V70H404.452ZM403.452 14.472H385.404V16.472H403.452V14.472ZM386.404 15.472V2.8H384.404V15.472H386.404ZM385.404 3.8H434.844V1.8H385.404V3.8ZM446.509 66.928L445.957 67.7619L445.965 67.7673L446.509 66.928ZM436.909 54.736L436.404 53.8727L435.685 54.2934L435.969 55.0768L436.909 54.736ZM448.237 48.112L449.171 47.7542L448.749 46.6541L447.732 47.2487L448.237 48.112ZM471.853 56.368L471.239 55.5786L471.853 56.368ZM471.277 45.808L470.74 46.6517L470.749 46.6575L470.759 46.6632L471.277 45.808ZM459.949 41.488L459.664 42.4464L459.67 42.4484L459.677 42.4504L459.949 41.488ZM452.269 38.8L451.868 39.7162L451.878 39.7206L452.269 38.8ZM446.029 35.248L445.429 36.048L445.443 36.0584L445.457 36.0684L446.029 35.248ZM441.325 29.488L440.421 29.915L441.325 29.488ZM446.125 6.928L446.766 7.69528L446.767 7.69437L446.125 6.928ZM476.077 5.488L475.528 6.32404L475.536 6.32899L475.543 6.33379L476.077 5.488ZM485.773 16.528L486.273 17.3939L487.08 16.9281L486.672 16.0905L485.773 16.528ZM474.637 22.96L473.731 23.3829L474.192 24.3717L475.137 23.8259L474.637 22.96ZM455.245 16.24L455.866 17.0241L455.87 17.0209L455.245 16.24ZM455.533 26.224L454.919 27.0133L454.935 27.0259L454.952 27.0377L455.533 26.224ZM465.709 30.448L466.007 29.4935L466.003 29.4922L465.709 30.448ZM470.317 31.984L469.966 32.9203L470 32.9331L470.035 32.9434L470.317 31.984ZM474.637 33.616L474.243 34.5351L474.263 34.5435L474.282 34.551L474.637 33.616ZM478.861 35.632L478.306 36.4641L478.319 36.4722L478.331 36.48L478.861 35.632ZM482.317 38.224L482.965 37.4621L482.317 38.224ZM485.197 41.584L484.323 42.0696L484.333 42.0878L484.344 42.1054L485.197 41.584ZM486.925 45.808L485.959 46.068L485.965 46.0905L485.973 46.1128L486.925 45.808ZM480.877 65.872L480.251 65.0922L480.246 65.0966L480.877 65.872ZM463.309 70.344C456.802 70.344 451.401 68.906 447.053 66.0887L445.965 67.7673C450.705 70.838 456.504 72.344 463.309 72.344V70.344ZM447.061 66.0941C442.696 63.2045 439.632 59.3133 437.849 54.3952L435.969 55.0768C437.898 60.3987 441.234 64.6355 445.957 67.7619L447.061 66.0941ZM437.414 55.5992L448.742 48.9752L447.732 47.2487L436.404 53.8727L437.414 55.5992ZM447.303 48.4698C448.675 52.0509 450.736 54.8017 453.516 56.6488C456.291 58.4936 459.704 59.384 463.693 59.384V57.384C460.002 57.384 456.999 56.5624 454.622 54.9832C452.25 53.4063 450.423 51.0211 449.171 47.7542L447.303 48.4698ZM463.693 59.384C467.487 59.384 470.478 58.7044 472.467 57.1573L471.239 55.5786C469.772 56.7196 467.323 57.384 463.693 57.384V59.384ZM472.467 57.1573C474.419 55.639 475.445 53.6604 475.445 51.28H473.445C473.445 52.9956 472.743 54.409 471.239 55.5786L472.467 57.1573ZM475.445 51.28C475.445 48.5444 474.191 46.4046 471.795 44.9528L470.759 46.6632C472.587 47.7714 473.445 49.2796 473.445 51.28H475.445ZM471.814 44.9643C469.568 43.535 465.667 42.0634 460.221 40.5256L459.677 42.4504C465.111 43.9846 468.762 45.393 470.74 46.6517L471.814 44.9643ZM460.234 40.5296C457.25 39.6407 454.727 38.7567 452.66 37.8794L451.878 39.7206C454.035 40.6353 456.632 41.5433 459.664 42.4464L460.234 40.5296ZM452.67 37.8838C450.69 37.0177 448.667 35.8677 446.601 34.4276L445.457 36.0684C447.615 37.5723 449.752 38.7903 451.868 39.7162L452.67 37.8838ZM446.629 34.448C444.711 33.0092 443.247 31.217 442.229 29.061L440.421 29.915C441.579 32.367 443.251 34.4148 445.429 36.048L446.629 34.448ZM442.229 29.061C441.216 26.9151 440.693 24.3782 440.693 21.424H438.693C438.693 24.6138 439.258 27.4529 440.421 29.915L442.229 29.061ZM440.693 21.424C440.693 15.6107 442.727 11.0711 446.766 7.69528L445.484 6.16072C440.947 9.95291 438.693 15.0773 438.693 21.424H440.693ZM446.767 7.69437C450.926 4.2084 455.91 2.456 461.773 2.456V0.455996C455.476 0.455996 450.028 2.35159 445.483 6.16163L446.767 7.69437ZM461.773 2.456C467.04 2.456 471.613 3.75463 475.528 6.32404L476.626 4.65195C472.349 1.84536 467.386 0.455996 461.773 0.455996V2.456ZM475.543 6.33379C479.535 8.85132 482.645 12.3846 484.874 16.9655L486.672 16.0905C484.293 11.1994 480.939 7.37267 476.611 4.6422L475.543 6.33379ZM485.273 15.6621L474.137 22.0941L475.137 23.8259L486.273 17.3939L485.273 15.6621ZM475.543 22.5371C474.14 19.5301 472.289 17.2124 469.963 15.6499C467.631 14.0842 464.887 13.32 461.773 13.32V15.32C464.547 15.32 466.891 15.9958 468.847 17.3101C470.809 18.6276 472.446 20.6299 473.731 23.3829L475.543 22.5371ZM461.773 13.32C458.872 13.32 456.45 13.9953 454.62 15.4591L455.87 17.0209C457.24 15.9247 459.17 15.32 461.773 15.32V13.32ZM454.624 15.456C452.845 16.8644 451.941 18.755 451.941 21.04H453.941C453.941 19.357 454.573 18.0476 455.866 17.024L454.624 15.456ZM451.941 21.04C451.941 23.4735 452.958 25.488 454.919 27.0133L456.147 25.4346C454.652 24.272 453.941 22.8305 453.941 21.04H451.941ZM454.952 27.0377C456.889 28.4214 460.423 29.8677 465.415 31.4038L466.003 29.4922C461.011 27.9563 457.761 26.5866 456.114 25.4103L454.952 27.0377ZM465.411 31.4025C467.454 32.0411 468.969 32.5464 469.966 32.9203L470.668 31.0477C469.617 30.6536 468.06 30.1349 466.007 29.4935L465.411 31.4025ZM470.035 32.9434C471.067 33.247 472.466 33.7734 474.243 34.5351L475.031 32.6969C473.224 31.9226 471.743 31.361 470.599 31.0246L470.035 32.9434ZM474.282 34.551C476.111 35.2445 477.438 35.8851 478.306 36.4641L479.416 34.7999C478.364 34.0989 476.875 33.3955 474.992 32.681L474.282 34.551ZM478.331 36.48C479.301 37.0864 480.413 37.9183 481.669 38.9859L482.965 37.4621C481.661 36.3537 480.469 35.4576 479.391 34.784L478.331 36.48ZM481.669 38.9859C482.882 40.0166 483.755 41.047 484.323 42.0696L486.071 41.0984C485.359 39.817 484.312 38.6074 482.965 37.4621L481.669 38.9859ZM484.344 42.1054C484.986 43.1572 485.53 44.472 485.959 46.068L487.891 45.548C487.424 43.816 486.816 42.3147 486.05 41.0625L484.344 42.1054ZM485.973 46.1128C486.449 47.6013 486.693 49.2569 486.693 51.088H488.693C488.693 49.0791 488.425 47.2147 487.877 45.5032L485.973 46.1128ZM486.693 51.088C486.693 57.0156 484.541 61.6478 480.251 65.0922L481.503 66.6518C486.301 62.8002 488.693 57.5764 488.693 51.088H486.693ZM480.246 65.0966C475.985 68.5658 470.37 70.344 463.309 70.344V72.344C470.712 72.344 476.809 70.4742 481.508 66.6474L480.246 65.0966Z" fill="#20242D"/>
</svg>
